<svg xmlns="http://www.w3.org/2000/svg" viewBox="0 0 96 96"><rect width="96" height="96" fill="#d6d5b5"/><circle cx="78" cy="16" r="28" fill="#fff" opacity=".14"/><path d="M9 96c1-22 16-33 39-33s38 11 39 33" fill="#888e60"/><path d="M39 55h18v19c-5 7-13 7-18 0z" fill="#edc7a1"/><g fill="#816651"><path d="M27 37c-2-18 12-26 22-24 14-4 24 9 21 24l-10-11-28 7z"/></g><ellipse cx="48" cy="42" rx="20" ry="24" fill="#edc7a1"/><g fill="#816651"><path d="M27 35c-1-18 12-24 23-22 13-2 24 8 21 23-8-2-13-8-17-14-6 9-18 11-27 13z"/></g><g fill="#483c36"><circle cx="39" cy="43" r="1.5"/><circle cx="57" cy="43" r="1.5"/></g><path d="M42 55q6 5 12 0" fill="none" stroke="#825745" stroke-width="1.8" stroke-linecap="round"/><path d="M48 44l-2 6h4" fill="none" stroke="#9f7156" stroke-width="1.3" stroke-linecap="round"/><path d="M31 96l3-17M65 96l-3-17" fill="none" stroke="#fff" stroke-width="1.5" opacity=".2"/></svg>
